<svg xmlns="http://www.w3.org/2000/svg" width="192" height="192"><path fill="#f9af66" d="M93 7.438c7.082 3.14 13.925 3.171 21.604 3.197 9.423.097 18.326 1.709 25.396 8.365 3.183 3.936 4.52 6.963 5 12l6 1-.312-2.687C151 26 151 26 153.063 23.188c3.547-2.642 5.52-3.265 9.937-3.188 4.161 1.884 5.638 3.187 7.5 7.375.5 3.625.5 3.625-.687 6.563-1.13 2.945-1.13 2.945.125 5.109a94 94 0 0 0 2.8 4.121c2.736 3.973 2.695 8.19 2.262 12.832-1.164 6.124-4.111 9.557-8.77 13.555-6.343 4.11-11.828 3.423-18.953 2.547-5.359-.499-7.979.338-12.277 3.898l-2 2 2.228.228c3.383.351 6.765.718 10.147 1.085l3.504.357c19.78 2.179 19.78 2.179 25.121 8.33 2.764 6.11 3.52 11.98 3.438 18.625l-.026 2.637c-.457 17.729-7.62 33.62-19.412 46.738l-1.57 1.852c-14.365 15.807-36.904 23.067-57.632 24.074C76.186 182.615 54.915 175.022 38 160l-2.113-1.828c-11.772-10.88-19.807-27.704-21.092-43.73a200 200 0 0 1-.107-8.004l-.05-2.71c-.004-6.768.745-12.793 5.425-18.04 7.969-4.578 17.073-5.42 26.062-6.376l3.477-.392Q53.799 78.448 58 78c-4.923-4.545-4.923-4.545-11.375-5.812l-2.648-.145L42 72l-.86 1.918C40 76 40 76 37.75 77.312c-3.424.856-5.375.743-8.75-.312-2.898-2.318-4.643-3.979-5.875-7.5-.125-2.5-.125-2.5.5-4.812.467-3.346-.66-5.388-1.906-8.45-1.8-5.606-1.501-11.22.968-16.55C27.49 31.283 35.453 26.626 43.75 22.25c5.22-2.807 9.943-5.489 14.25-9.625 9.473-9.034 23.136-10.579 35-5.187"/><path fill="#ce7da6" d="M93 7.438c7.082 3.14 13.925 3.171 21.604 3.197 9.423.097 18.326 1.709 25.396 8.365 3.183 3.936 4.52 6.963 5 12l6 1-.312-2.687C151 26 151 26 153.063 23.188c3.547-2.642 5.52-3.265 9.937-3.188 4.161 1.884 5.638 3.187 7.5 7.375.5 3.625.5 3.625-.687 6.563-1.13 2.945-1.13 2.945.125 5.109a94 94 0 0 0 2.8 4.121c2.736 3.973 2.695 8.19 2.262 12.832-1.164 6.124-4.111 9.557-8.77 13.555-6.343 4.11-11.828 3.423-18.953 2.547-4.095-.381-5.873-.318-9.62 1.687-2.55 2.04-2.55 2.04-4.247 3.856-4.221 4.057-11.467 4.543-17.035 4.543L112 82l-1 12H81l-1-13-6.375.25C67 81.25 61.745 80.376 56 77l-2-2.187c-3.34-3.027-7.64-2.647-12-2.813l-.86 1.918C40 76 40 76 37.75 77.312c-3.424.856-5.375.743-8.75-.312-2.898-2.318-4.643-3.979-5.875-7.5-.125-2.5-.125-2.5.5-4.812.467-3.346-.66-5.388-1.906-8.45-1.8-5.606-1.501-11.22.968-16.55C27.49 31.283 35.453 26.626 43.75 22.25c5.22-2.807 9.943-5.489 14.25-9.625 9.473-9.034 23.136-10.579 35-5.187"/><path fill="#bd69a8" d="M93 11v2c3.84.886 7.465 1.161 11.402 1.246l3.698.1q3.831.09 7.664.172l3.7.103 3.364.076C129.555 15.34 135.49 17.912 140 23c1.49 3.597 2.346 7.169 3 11l8-1-.312-3.187C151 26 151 26 153.063 23.125c3.55-2.568 5.558-3.202 9.937-3.125 4.161 1.884 5.638 3.187 7.5 7.375.5 3.625.5 3.625-.687 6.563-1.13 2.945-1.13 2.945.125 5.109a94 94 0 0 0 2.8 4.121c2.736 3.973 2.695 8.19 2.262 12.832-1.164 6.124-4.111 9.557-8.77 13.555-6.343 4.11-11.828 3.423-18.953 2.547-4.182-.39-5.892-.312-9.718 1.773-2.47 1.94-2.47 1.94-3.996 3.75C129.035 81.61 122.658 81.199 117 81l.438-1.617c2.41-9.679 2.974-20.057-1.883-29.063C111.97 44.776 109.29 41.974 103 40c-2-2-2-2-2.75-4.437C98.54 32.056 96.497 31.649 93 30c-1.801-1.468-3.5-3.004-5.191-4.598C82.409 21.215 75.603 20.925 69 21c-3.209.596-6.15 1.39-9 3l-2 3h-2l-.125 2c-.885 3.034-1.828 4.43-3.75 6.875C46.401 43.278 45.031 49.749 46 59c.814 2.783 1.879 5.318 3 8l-1 3c-2.312-.562-2.312-.562-5-2a126 126 0 0 1-3-7c-3.42-2.28-4.682-2.22-8.687-2.125l-3.012.055L26 59c-3.153-7.131-2.666-13.703 0-21 3.472-8.101 12.621-10.799 20.144-14.196 4.464-2.052 8.574-4.37 12.731-6.991C70.182 9.728 79.728 6.025 93 11"/><path fill="#f9b680" d="m19 87 2 1v1l5 1v2l1.688-.035C32.898 91.903 37.844 92.25 43 93l-2.125 1.875c-5.964 6.152-9.262 11.849-9.625 20.563.291 7.18 2.156 12.967 6.75 18.562 1.92 1.424 1.92 1.424 4 2l3-1c8.536-.724 15.46-.78 22.852 4.004 2.137 1.188 2.137 1.188 4.683.902 3.03-1.113 4.259-2.475 6.278-4.969l1.832-2.222L82 131c6.875 2.75 6.875 2.75 8 5l2.2.434c3.305.668 5.683 1.97 8.612 3.629l2.958 1.66L106 143v1l-8 1 13 1v3c-9.804 3.988-19.922 4.423-30 1l-2-2c-3.597.323-3.597.323-7 1l1 3.25c1 3.75 1 3.75 1 7.75l4 2v2l5 2 1-2 2 1.938c6.06 4.165 13.893 3.193 21 3.062l-4 5c10.695-1.938 19.383-5.314 28-12l2 1-1 2 1.938.375L136 166l1 2-3 3c7.344-4.077 12.53-8.207 17.441-15.059L153 154h2v-2h2v-2l2.277-1.805c9.494-7.654 14.201-21.42 15.723-33.195.428-4.997.746-9.99 1-15h1c.945 21.44-4.363 39.717-19 56l-1.57 1.852c-14.365 15.807-36.904 23.067-57.632 24.074C76.186 182.615 54.915 175.022 38 160l-2.113-1.828c-11.772-10.88-19.807-27.704-21.092-43.73a200 200 0 0 1-.107-8.004l-.05-2.71C14.635 97.799 15.552 93.413 18 88z"/><path fill="#f9eadd" d="M73 93c6.42 4.246 10.797 9.572 13 17 1.267 9.047.316 16.485-5 24-2.106 2.705-4.166 5.05-7 7-2.853.225-4.321-.625-6.781-1.984-8.415-4.333-18.09-4.159-27.219-2.016a504 504 0 0 1-2.812-3.625l-1.583-2.04c-5.208-7.577-5.747-14.3-4.605-23.335 2.738-7.429 7.965-13.182 14.836-17.027C54.887 86.964 64.53 88.259 73 93"/><path fill="#f8e8db" d="M146.68 91.676c5.872 3.351 10.93 7.67 13.703 13.949 2.113 8.132 1.243 16.535-2.75 23.895l-1.508 2.292-1.492 2.333c-1.88 2.136-2.826 2.607-5.633 2.855l-3-1c-7.643-.6-14.293-.685-21.133 3.027-2.042 1.064-3.566 1.749-5.867 1.973-6.515-3.588-10.92-9.99-13-17-1.253-8.947-.443-16.632 5-24 9.756-10.796 22.017-14.584 35.68-8.324"/><path fill="#fab3a0" d="M93 43c3.577 1.082 4.418 1.298 7.813-.437L103 41l1.063 2.875c2.2 5.137 5.34 9.858 8.937 14.125l3 1c.695 6.512 1.32 12.551 0 19h-3v2h-2v14H81l-1-13 5-1v-2l-2.437.625C78.03 79.102 74.265 78.627 70 77c-2.812-2.5-2.812-2.5-5-5l-2.25-.937C61 70 61 70 60.125 67.313 59.859 60.253 62.68 54.419 67 49c7.556-7.623 15.98-9.227 26-6"/><path fill="#e6733d" d="M66 80c2.393.226 4.79.408 7.188.563l3.855.253L80 81c1.151 4.605 1 7.94 1 13h30V81l5.063.125c3.481.009 6.006-.145 9.374-1.125C137.55 76.6 157.5 78.66 169 84c2.625 2.188 2.625 2.188 4 4-2.767 2.767-5.647 2.749-9.375 3.188l-2.165.262c-6.83.74-13.745.79-20.437-.97-7.673-1.822-14.95-.986-21.77 2.91-6.497 4.64-11.028 10.932-13.253 18.61-.56 3.665-.862 7.296-1 11l-2.875-.562c-3.024-.725-3.024-.725-5.125.562v-2l-1.75.625c-2.794.466-3.837-.257-6.25-1.625h-2l-.262-1.836c-1.492-8.9-4.32-17.277-11.734-22.914C67.687 90.686 60.602 88.873 52 90c-2.084.66-4.037 1.462-6.043 2.328C39.771 94.452 32.324 92.803 26 92v-2h-5l-1-4c4.04-2.797 7.915-3.829 12.688-4.625l2.157-.378C57.412 77.137 57.412 77.137 66 80"/><path fill="#fcc079" d="m34 129 1.75 2.375c2.088 2.435 3.242 3.655 6.25 4.625l3-1c8.536-.724 15.46-.78 22.852 4.004 2.137 1.188 2.137 1.188 4.683.902 3.03-1.113 4.259-2.475 6.278-4.969l1.832-2.222L82 131c6.875 2.75 6.875 2.75 8 5l2.2.434c3.305.668 5.683 1.97 8.612 3.629l2.958 1.66L106 143v1l-8 1 13 1v3c-9.804 3.988-19.922 4.423-30 1l-2-2c-3.597.323-3.597.323-7 1l1 3.25c1 3.75 1 3.75 1 7.75l4 2v2l2.813.688c3.716 1.53 4.566 2.71 6.187 6.312v2c-9.71-.535-18.227-1.567-25.957-7.754-2.725-1.662-5.463-2.303-8.543-3.121-9.702-2.79-14.694-9.481-19.5-18.125v-2l-2-1c1.152-2.468 2.048-4.048 4-6l-1.062-1.875L33 131z"/><path fill="#f18968" d="M172 88h2c6.097 13.169 2.483 29.736-2 43-3.044 7.118-7.2 13.783-13 19h-2v2h-2v2a279 279 0 0 1-5 5l-2.25 2.938c-3.18 3.912-7.366 6.633-11.75 9.062h-2l2-4-4-2c1-3.694 2.055-7.134 3.5-10.687 1.749-4.473 2.342-9.032 2.973-13.774C139 138 139 138 141 136c1.733.115 3.463.29 5.188.5 3.771.094 5.23.03 8.058-2.543 5.814-8.183 6.778-16.037 5.754-25.957-2.605-7.886-8.304-12.536-15-17l2.64.07c7.962.12 15.59-.206 23.36-2.07z"/><path fill="#8f5aa3" d="M107 15q4.563-.08 9.125-.125c.856-.017 1.712-.034 2.594-.05 7.66-.06 13.373 1.472 19.511 6.179 3.258 3.675 3.961 8.261 4.77 12.996l8-1-.312-3.187C151 26 151 26 153.063 23.125c3.55-2.568 5.558-3.202 9.937-3.125 4.2 1.902 5.65 3.196 7.5 7.438.533 3.8.48 5.322-1.5 8.562-1.92 2.226-3.275 2.917-6.191 3.25-2.33.06-4.503.093-6.809-.25l-2-2c-3.474-.398-3.474-.398-7 1-1.887 2.811-2.914 5.81-4 9l-1.117 2.414c-1.066 3.123-.979 5.432-.696 8.711l.231 3.133c.63 2.972 1.155 3.978 3.582 5.742 2.764.782 2.764.782 6 1l3.875.375c5.62-.054 9.923-3.253 13.855-7.043L170 60c-2.012 5.727-4.61 8.24-10 11-3.086.328-3.086.328-6.375.25l-3.441-.078c-3.466-.187-6.774-.538-10.184-1.172v-4c-2.535 2.465-4.886 4.847-7 7.688-2.243 2.593-3.692 3.485-7 4.312-2.156-.46-2.156-.46-4-1l.219-2.379.281-3.183.297-3.317c.16-2.455.145-4.682-.047-7.121.25-3 .25-3 2.563-5.437C128 54 128 54 131 54l1-2 3-1 2 2a297 297 0 0 0-.187-6.812l-.106-3.833c-.363-3.532-.363-3.532-3.258-5.304L131 36l.473-2.23.59-2.958.597-2.917c.352-2.995.283-5.036-.66-7.895-3.55-2.366-5.469-2.348-9.687-2.562-5.15-.3-10.206-.723-15.313-1.438z"/><path fill="#2e103a" d="M68.25 101.063c4.055 2.857 7.516 6.469 9.75 10.937.436 6.535-.269 10.325-4.266 15.703-3.76 4.064-7.197 4.822-12.671 5.11-6.138-.249-9.373-1.595-13.61-5.989-3.737-4.69-4.05-7.856-3.973-13.734.844-5.018 3.611-7.991 7.52-11.09 5.288-3.265 11.504-2.816 17.25-.937"/><path fill="#4c2e09" d="M137 100c3.375 1.625 3.375 1.625 6 4l2.875 2.5c3.002 3.809 2.76 7.985 2.535 12.656-.572 3.968-1.569 6.003-4.41 8.844-6.523 4.59-11.877 4.64-19.625 3.438-4.373-1.863-6.77-4.512-9.375-8.438-1.243-3.73-1.523-7.126-1-11 5.038-9.882 12.33-13.073 23-12"/><path fill="#453684" d="m154 36 2 2c2.3.388 2.3.388 4.875.5 3.522.21 6.14.536 9.125 2.5 2.23 5.35 3.172 11.275 2 17-3.023 5.157-7.276 9.131-13 11-5.748.464-10.52-.205-16-2-2.205-3.308-2.42-4.977-2.75-8.875l-.297-3.117c.05-3.243.655-5.103 2.047-8.008l1.219-2.64 1.281-2.61 1.281-2.64c2.059-3.563 4.35-3.4 8.219-3.11"/><path fill="#706fa7" d="M86 12a93 93 0 0 1 5.188 2c7.242 2.725 14.475 2.268 22.096 2.027 14.939-.407 14.939-.407 19.79 3.75 1.182 2.838 1.09 4.74.738 7.785l-.292 2.88C133 33 133 33 131 36a85 85 0 0 1-7-2 256 256 0 0 0-6.187-.375c-3.983-.274-7.425-.607-11.126-2.125-3.1-1.261-4.537-1.648-7.687-1.812-4.398-.392-7.006-2.554-10.336-5.313-1.63-1.451-1.63-1.451-3.664-2.375v-2l-3.187-.812C78.409 18.128 75.868 17.086 73 15v-2c3.971-1.986 8.675-1.422 13-1"/><path fill="#6157b1" d="M56 26c.284 3.059.264 4.591-1.426 7.21l-1.886 2.165c-5.467 6.739-7.18 12.032-6.997 20.68C46.116 60.103 47.436 63.259 49 67l-1 3c-2.312-.562-2.312-.562-5-2a126 126 0 0 1-3-7c-3.42-2.28-4.682-2.22-8.687-2.125l-3.012.055L26 59c-2.554-5.756-2.965-11.045-1-17.062L26 40h2l.594-2.293c1.934-3.723 4.095-4.388 7.906-6.02l3.531-1.55C43 29 43 29 45 29v-2c7.625-2.125 7.625-2.125 11-1"/><path fill="#e74329" d="M77.5 147.25C80 148 80 148 83 150c9.352 2.054 18.818 1.49 28-1v-2h5c.874 2.917 1.301 4.39-.074 7.176l-1.614 2.137c-2.155 2.985-3.99 5.856-5.562 9.187C107 169 107 169 105 170c-7 .552-12.827.49-19-3l-2-2h-4c-4.633-3.15-6.823-5.349-8-11-.312-2.75-.312-2.75 0-5 3-2 3-2 5.5-1.75"/><path fill="#d59dc0" d="M93 7.438c7.082 3.14 13.925 3.171 21.604 3.197 9.423.097 18.326 1.709 25.396 8.365 3.183 3.936 4.52 6.963 5 12l7 2v1h-9c-3-6.5-3-6.5-3-11l-1.687-.75C136 21 136 21 133.563 18.938c-4.295-3.247-8.745-3.071-14-3.184l-3.711-.1q-3.852-.09-7.704-.172l-3.71-.103-3.38-.076C98.01 15.001 95.765 14.286 93 13v-2c-17.67-3.12-27.99 2.52-42.629 11.629-3.5 2.024-7.18 3.585-10.883 5.203a40.5 40.5 0 0 0-6.05 3.48C31 33 31 33 29 33c-3.674 8.661-5.385 16.759-3 26h2l-1 2.125c-1.15 3.304-1.506 5.404-1 8.875 2.246 2.807 3.895 4.612 7.313 5.813L35 76v2c-3.884-.271-5.732-.785-8.812-3.25C23.925 71.905 23.179 70.58 23 67l.625-2.312c.467-3.346-.66-5.388-1.906-8.45-1.8-5.606-1.501-11.22.968-16.55C27.49 31.283 35.453 26.626 43.75 22.25c5.22-2.807 9.943-5.489 14.25-9.625 9.473-9.034 23.136-10.579 35-5.187"/><path fill="#ea9abc" d="m45 51 .836 1.734c1.159 2.256 2.433 4.375 3.789 6.516l1.352 2.14L52 63l4-1 1-4c1.938.688 1.938.688 4 2 1.08 3.33 1.1 6.52 1 10l3.375 1.875C67.639 73.133 69.146 74.146 71 76c4.544 1.446 9.225 2.308 14 2v2c-8.635 2.669-18.946 1.89-27.074-1.848C56 77 56 77 54 74.812c-3.34-3.026-7.64-2.646-12-2.812l-.863 1.941C40 76 40 76 37.812 76.937c-4.677.104-8.348-1.568-11.75-4.75C24.623 69.223 24.6 67.266 25 64c2.265-4.632 2.265-4.632 5-6 4.001-.377 6.296-.407 9.813 1.625C42.29 62.315 42.859 64.577 44 68c2.014.719 2.014.719 4 1l-.656-1.906C45.519 61.486 44.673 56.89 45 51"/><path fill="#f4956a" d="m161 114 2 4 2-2c-1.382 9.566-3.906 17.752-9 26a278 278 0 0 0-1 4l-2 2 2 3c0 3 0 3-2.187 5.313-.929.886-1.857 1.773-2.813 2.687l-2.25 2.938c-3.18 3.912-7.366 6.633-11.75 9.062h-2l2-4-4-2c1-3.694 2.055-7.134 3.5-10.687 1.749-4.473 2.342-9.032 2.973-13.774C139 138 139 138 141 136c1.733.115 3.463.29 5.188.5 3.587.056 5.21-.01 8.023-2.297 4.703-6.23 6.143-12.525 6.789-20.203"/><path fill="#f09d97" d="M93 43c3.577 1.082 4.418 1.298 7.813-.437L103 41l1.063 2.875c2.2 5.137 5.34 9.858 8.937 14.125l3 1c.695 6.512 1.32 12.551 0 19h-3v2l-4 1-1-3h2c1.12-6.095.965-11.106-1-17-2-1.209-2-1.209-4-2v-4l-2.102-.309c-4.514-1.077-8.423-3.323-12.546-5.414-4.41-1.68-8.104-1.962-12.645-.578C73.514 50.887 70.487 52.822 68 57c-.888 3.279-1.145 5.375-.375 8.688C68 68 68 68 66.813 69.875 65 71 65 71 62.813 70.688L61 70c-1.591-6.524-.107-11.33 3.125-17.062C68.097 46.973 72.998 43.198 80 41.5c4.88-.757 8.327-.005 13 1.5"/><path fill="#f9a853" d="M146 135v1l-6 2-.332 2.344c-.956 6.283-2.256 11.784-4.668 17.656l-.402 2.098C134 162 134 162 131 163.938L127 166l-2.008 1.223c-6.162 3.717-15.036 8.604-22.379 7.379L101 174l2.25-1.437c3.113-2.901 4.08-5.25 5.645-9.118 1.54-3.406 3.593-6.351 5.738-9.402 1.309-1.956 2.364-3.917 3.367-6.043l2 2c-.082 4.35-.503 6.424-3.375 9.75L114 162c-2.068 1.991-3.372 3.558-5 6 9.402-2.297 9.402-2.297 17-8 1.496-3.389 1.496-3.389 1-7-1.738-3.023-3.835-5.418-7-7v-2h-3v-3c1.65-.722 3.303-1.439 4.965-2.133 1.887-.804 3.744-1.676 5.597-2.554 5.87-2.232 12.267-1.547 18.438-1.313"/><path fill="#fbc251" d="M99 75c4.13 1.817 8.02 3.853 12 6v13H81l-1-13c13.364-7.208 13.364-7.208 19-6"/><path fill="#dd602b" d="M66 80c2.393.226 4.79.408 7.188.563l3.855.253L80 81v3c-7.968 1.891-15.842 2.496-24 3q-2.814.198-5.625.438l-2.29.183c-2.31.42-4.042 1.238-6.085 2.379l4 2c-5.617 2.809-14.008.76-20 0v-2h-5l-1-4c4.04-2.797 7.915-3.829 12.688-4.625l2.157-.378C57.412 77.137 57.412 77.137 66 80"/><path fill="#ee8339" d="M109 96h6l-1.46 2.23-1.915 2.957-1.898 2.918c-2.752 4.613-3.965 8.35-4.352 13.707l-.227 2.958L105 123l-2.875-.562c-3.024-.725-3.024-.725-5.125.562v-2l-1.75.625c-2.794.466-3.837-.257-6.25-1.625h-2l-.297-1.906C85.645 112.038 83.897 107.408 81 102v-2l1.688.438L85 101l2.203.555c3.384.538 6.443.377 9.86.132l3.66-.238c2.97-.407 4.843-.738 7.277-2.449z"/><path fill="#f59958" d="m19 87 2 1v1l5 1v2l1.688-.035C32.898 91.903 37.844 92.25 43 93l-2.125 1.875C35.013 100.77 31.501 107.895 30 116l-2.375-2c-2.34-2.202-2.34-2.202-4.625-2l-2 5c-3-1-3-1-4.168-2.969-1.155-4.207-1.161-8.188-1.145-12.531l-.048-2.55C15.635 94.117 15.92 90.963 19 87"/><path fill="#44220a" d="M128 101c9.223-1.068 9.223-1.068 13.477 1.488 6.346 5.574 6.346 5.574 6.761 10.121.153 6.47.234 10.536-4.238 15.391-3 2-3 2-7 2-7.613-6.92-7.832-19.466-9-29"/><path fill="#e58f9d" d="m83 29 8 4v2l2.25.063c3.178 1.083 3.478 1.682 5.063 4.5L100 43l-3 2c-2.812-.812-2.812-.812-6-2-7.053-1.598-13.892-.358-20.191 3.258C66.356 49.778 64.225 53.838 62 59c-3.52 0-4.439-.704-7-3v-2h2l-.25-2.187c.401-4.512 3.344-6.958 6.547-9.981 7.426-6.113 7.426-6.113 12.078-7.02 3.788-.496 3.788-.496 6.125-3.437z"/><path fill="#9970b2" d="M93 11v2l14 2c-3.517 2.345-4.862 2.327-9 2-2.754-.875-2.754-.875-5.562-2-6.563-2.338-12.54-2.4-19.438-2 2.278 3.417 3.384 3.797 7.125 5.188l2.758 1.042L85 20v2l2.188.75C90.29 24.129 92.5 25.71 95 28l1 3c-2.787-1.18-4.597-2.508-6.937-4.5C83.053 21.595 76.598 20.913 69 21c-3.209.596-6.15 1.39-9 3l-2 3-2-.562c-3.893-.568-7.114-.03-11 .562v2q-2.342 1.19-4.687 2.375l-2.637 1.336C35 34 35 34 32.25 35.03c-2.418.786-2.418.786-3.562 3.094L28 40h-2l-1 2c.76-4.109 2.139-7.48 5.45-10.184 4.932-3.263 10.32-5.585 15.694-8.012 4.464-2.052 8.574-4.37 12.731-6.991C70.182 9.728 79.728 6.025 93 11"/><path fill="#f8aa69" d="m131 162 2 1-1 2 1.938.375L136 166l1 2-2 1-1 3c-2.187 1.063-2.187 1.063-5 2l-3.035 1.02L123 176l-2.309.887c-6.135 2.308-12.173 2.793-18.691 3.113v-3l-3.324.113c-5.283-.003-10.315-.93-15.489-1.925l-2.85-.502-2.732-.518-2.464-.46c-2.414-.798-3.511-1.79-5.141-3.708q3.688.462 7.375.938l2.117.263c5.281.686 5.281.686 7.508 1.799l-2.062-3.375c-1.16-1.898-1.16-1.898-1.938-3.625l1-2 2 1.938c6.06 4.165 13.893 3.193 21 3.062l-4 5c10.695-1.938 19.383-5.314 28-12"/><path fill="#fbb977" d="M82 131c6.875 2.75 6.875 2.75 8 5l2.2.434c3.305.668 5.683 1.97 8.612 3.629l2.958 1.66L106 143v1l-8 1 13 1v3c-9.536 3.88-20.248 4.792-30 1-2-2.625-2-2.625-3-5l4-2-4-5 1.438-2.375c.901-1.514 1.774-3.049 2.562-4.625"/><path fill="#db6530" d="M169 84c2.625 2.188 2.625 2.188 4 4-2.839 2.839-5.927 2.707-9.75 3.125l-2.133.262c-4.06.475-8.021.703-12.117.613l4-2-1.898-.367-2.477-.508-2.46-.492C144 88 144 88 142 86c-6.09-1.931-12.168-2.139-18.504-2.004-2.915.005-5.649-.38-8.496-.996v-1c16.457-4.09 38.017-5.42 54 2"/><path fill="#ce6483" d="M69 30c1.296 2.134 2.068 3.415 1.773 5.938-.952 2.54-2.127 3.596-4.21 5.312l-1.872 1.578C63 44 63 44 61 44c-2.084 3.847-3.497 7.9-5 12-3.129 0-4.374-.425-7-2-2.076-4.152-1.226-8.285.125-12.562 2.741-5.026 5.63-8.41 10.875-10.813 3.09-.644 5.852-.775 9-.625"/><path fill="#66e750" d="M165 21c2.953 2.311 4.618 3.982 5.938 7.5.097 3.919-.955 6.36-3.5 9.313C163.64 39.662 160.124 39.895 156 39c-3.629-3.036-4.808-4.907-5.625-9.562.781-4.297 2.277-5.728 5.625-8.438 3.225-1.612 5.562-.816 9 0"/><path fill="#9a2221" d="M75 147c3.375.547 5.082 1.055 8 3 9.352 2.054 18.818 1.49 28-1v-2h5c.813 2 .813 2 1 5-1.412 2.85-3.149 5.419-5 8-2.837-.373-5.493-.803-8.168-1.84-6.669-2.535-11.23-1.847-18.047.078C83 159 83 159 80 159c-3.813-3.7-4.59-6.778-5-12"/><path fill="#ed7829" d="m111 81 4.875 1c3.758.691 7.244 1.1 11.063 1 5.768-.13 11.47.566 17.062 2l2 2c2.197.677 2.197.677 4.625 1.125l2.477.508L155 89c-2 2-2 2-4.242 2.23l-2.633-.043-2.617-.019C143 91 143 91 141.039 90.508c-7.166-1.785-13.866-1.147-20.148 2.601-3.29 1.55-6.32 1.146-9.891.891z"/><path fill="#e84a56" d="M37 58c2.753 1.796 4.526 3.053 6 6 .476 4.835.645 6.96-1.937 11.125-3.333 2.04-3.959 2.13-7.626 1.5-3.118-.925-4.497-1.677-7-3.875C24.715 69.453 24.465 67.673 25 64c2.935-6.003 5.407-6.559 12-6"/><path fill="#8f497f" d="M110 36c8.416-.418 15.113-.268 21.75 5.313 2.359 2.817 4.469 5.467 6.25 8.687-.25 2.375-.25 2.375-1 4l-3-2-1.645.875L130.188 54l-2.145 1.125C126 56 126 56 123 56l-.55-1.828c-1.345-4.274-2.53-7.696-5.45-11.172v-2l-7-2z"/><path fill="#fbba67" d="m74 145 5 1c-2.332 1.206-4.496 2.165-7 3l1 3.25c1 3.75 1 3.75 1 7.75l4 2v2l2.813.688c3.716 1.53 4.566 2.71 6.187 6.312v2c-7.173-.268-13.926-.855-20-5-2.125-3.062-2.125-3.062-3-6l1-3c.26-2.311.442-4.622.621-6.941C66 150 66 150 68 148c2.625-.125 2.625-.125 5 0z"/><path fill="#fab6b2" d="M69 63h4v2h2v2c4.581 1.283 9.243 2 14 2h5v2l2 1h-2v2h-2l-1 3c-6.243 3.202-12.832 1.763-19.375.188C68.737 75.88 67.065 74.382 65 72c1.059-3.403 2.009-6.014 4-9"/><path fill="#f09c8d" d="M176 100h1c.945 21.44-4.363 39.717-19 56l-1.57 1.852c-14.52 15.98-37.05 22.972-57.948 24.014-5.585.205-10.942-.062-16.482-.866v-1l2.029-.06c3.095-.097 6.189-.206 9.284-.315 1.052-.03 2.105-.062 3.189-.094 17.046-.63 35.14-4.35 48.248-15.969a234 234 0 0 0 3.809-4.43l1.629-1.945 1.48-1.832L153 154h2v-2h2v-2l2.277-1.805c9.494-7.654 14.201-21.42 15.723-33.195.428-4.997.746-9.99 1-15"/><path fill="#f9ae6a" d="M25.563 110.938 28 111l1 3 2-1 .402 2.668.535 3.52.528 3.48c.449 2.795.956 5.561 1.535 8.332-2.96 1.72-5.165 2.98-8.625 3.063-3.584-1.604-4.581-3.6-6.375-7.063-1.575-4.984-2.269-9.761-2-15l.875 1.938c.953 2.214.953 2.214 3.125 3.062l.438-2.437c.777-3.544.777-3.544 4.125-3.626"/><path fill="#38131a" d="M64 101c3.387 0 5.411.455 7.922 2.777 4.21 4.81 6.4 7.513 6.293 14.13-.478 4.659-2.469 7.434-5.903 10.468L70 130c-2.547-6.946-3.915-13.694-5-21l-.555-3.238C64 103 64 103 64 101"/><path fill="#5144a6" d="m154 36 2 2c2.3.388 2.3.388 4.875.5 3.522.21 6.14.536 9.125 2.5 2.337 5.61 2.218 10.991 2 17h-1l-.043-1.793c-.247-4.098-.657-6.718-2.832-10.27-4.57-2.833-8.883-3.005-14.125-1.937-1.971 2.285-1.971 2.285-3 5l-2.5.938c-2.732.904-2.732.904-4.375 3.687-1.493 4.478-1.253 6.788-.125 11.375 1.898 2.033 1.898 2.033 4 3-2.375-.312-2.375-.312-5-1-2.205-3.308-2.42-4.977-2.75-8.875l-.297-3.117c.05-3.243.655-5.103 2.047-8.008l1.219-2.64 1.281-2.61 1.281-2.64c2.059-3.563 4.35-3.4 8.219-3.11"/><path fill="#e48479" d="M103 39c7.486 2.89 11.23 6.93 15 14 3.12 8.168 2.621 17.534 1 26l-1 1 4 2h-10l-1-2h2v-2h3q.04-3.062.063-6.125l.035-3.445c-.095-3.31-.214-6.235-1.098-9.43-1.846-1.142-1.846-1.142-4-2-4.436-5.119-7.696-10.337-9-17z"/><path fill="#443464" d="m160.563 54.25 2.878.266C166 55 166 55 169 57c-.568 3.62-.959 5.993-3.633 8.578-4.906 3.348-8.501 3.946-14.367 3.422v-2h-2c-.303-7.89-.303-7.89 2-11 3.313-2.146 5.688-2.15 9.563-1.75"/><path fill="#f5985b" d="m143.941 135.902 3.621.036 3.63.027L154 136l-2 4h-2l-1 4h-2l.25 2.188c-.326 3.666-1.909 5.045-4.25 7.812l-.344 1.918c-.943 2.992-2.72 4.003-5.219 5.832l-2.503 1.86L133 165c0-2.899.397-4.396 1.375-7.062 1.447-4.171 2.346-8.3 3.156-12.633 1.882-9.252 1.882-9.252 6.41-9.403"/><path fill="#c786ba" d="M166 37c1.828.215 1.828.215 4 1 4.136 5.584 5.881 11.171 5 18-1.229 6.131-4.082 9.531-8.77 13.555-6.343 4.11-11.828 3.423-18.953 2.547-4.182-.39-5.892-.312-9.718 1.773-2.47 1.94-2.47 1.94-3.996 3.75C129.035 81.61 122.658 81.199 117 81l1-2c2.03-.568 4.074-1.079 6.125-1.562 6.335-1.815 9.102-4.11 12.605-9.61L138 66h2v4c3.166.176 6.33.282 9.5.375l2.688.152c6.14.136 9.51-1.013 14.236-4.96 3.83-3.81 4.73-7.256 4.826-12.504-.124-4.088-.55-8.036-1.25-12.063l-5-2z"/><path fill="#f18c3b" d="m85 108 5 2c2.61-.005 2.61-.005 5.188-.437 4.62-.659 4.62-.659 6.812.437l2-2h3l-2 15-6-1-2 1v-2l-1.75.625c-2.794.466-3.837-.257-6.25-1.625h-2z"/><path fill="#8d8ab8" d="M107 15q4.563-.08 9.125-.125c.856-.017 1.712-.034 2.594-.05 7.66-.06 13.373 1.472 19.511 6.179 3.258 3.675 3.961 8.261 4.77 12.996h9c-2.683 1.342-5.22 2.55-8 3.625-.66.26-1.32.52-2 .79-3.484 1.02-5.594.807-8.75-.915L131 36l.473-2.23.59-2.958.597-2.917c.352-2.995.283-5.036-.66-7.895-3.55-2.366-5.469-2.348-9.687-2.562-5.15-.3-10.206-.723-15.313-1.438z"/><path fill="#d69cc4" d="M75 22c7.28 1.052 13.203 3.214 19.09 7.605 1.99 1.559 1.99 1.559 4.91 2.707 2.518 2.125 2.438 3.17 2.813 6.376.084 1.436.154 2.874.187 4.312-3.726-1.242-5.393-3.111-8-6v-2h-3v-2l-2.437-.812c-1.884-.628-3.765-1.267-5.614-1.989C73.746 26.75 66.044 27.33 57 31c1-3 1-3 2.82-4.133C64.628 24.797 68.8 23.542 74 23z"/><path fill="#4e3e09" d="m122 102 2 1-.555 2.04c-.548 3.645-.11 6.69.43 10.335l.555 3.836L125 123q.504 3.5 1 7l-4 1a654 654 0 0 1-3.437-3.812l-1.934-2.145c-2.72-3.41-2.97-6.695-2.914-10.984.705-5.092 4.672-8.704 8.285-12.059"/><path fill="#df7f8c" d="m83 29 8 4-2 4c-2.187.625-2.187.625-5 1l-3.5 1.063c-3.06.819-5.37 1.127-8.5.937l-1 3-1.937.438L67 44c-1.15 1.967-1.15 1.967-2 4l-2 1c-1.127 2.11-1.127 2.11-2.125 4.563l-1.07 2.503L59 58l-4-2v-2h2l-.25-2.187c.401-4.512 3.344-6.958 6.547-9.981 7.426-6.113 7.426-6.113 12.078-7.02 3.788-.496 3.788-.496 6.125-3.437z"/><path fill="#f2831f" d="M80 84c1.607 3.215 1.057 6.436 1 10-4.981.369-8.246.075-12.812-2-7.855-3.404-15.817-2.233-24.094-1.023C42 91 42 91 39 89c7.229-1.93 13.86-3.274 21.352-3.043 6.806.11 13.08-2.13 19.648-1.957"/><path fill="#7956a4" d="m80.625 11.938 3.04.027L86 12v1l-6.152.684c-1.86.135-1.86.135-2.848 1.316l2.668 1.023 3.52 1.352 3.48 1.336c4.043 1.564 8.059 3.152 12.02 4.914C101.71 25.128 101.71 25.128 104 25l1 2c2.413.848 2.413.848 5.348 1.508l3.271.8 3.444.817 3.455.84Q124.756 31.994 129 33l1-2 1 5a85 85 0 0 1-7-2 256 256 0 0 0-6.187-.375c-3.983-.274-7.425-.607-11.126-2.125-3.1-1.261-4.537-1.648-7.687-1.812-4.398-.392-7.006-2.554-10.336-5.313-1.63-1.451-1.63-1.451-3.664-2.375v-2l-3.187-.812C78.409 18.128 75.868 17.086 73 15v-2c2.645-1.322 4.678-1.097 7.625-1.062"/><path fill="#5349a7" d="M31 40c2.035.688 2.035.688 4 2 .871 1.813.871 1.813 1.438 4 1.35 4.655 3.358 8.686 5.671 12.934L43 61l-1 2-1.937-1.937c-3.58-2.412-5.86-2.571-10.075-2.692L28 58c-2.69-4.036-2.557-7.26-2-12 2.081-4.54 2.081-4.54 5-6"/><path fill="#b25275" d="M112 39h3v2h2c3.884 4.658 5.386 8.98 6 15l2 1-1 1c0 2.078.004 4.156.031 6.234-.056 4.94-.565 9.85-1.031 14.766l-5-1 .5-2.375c1.663-12.06.29-20.927-7.04-30.754L110 43z"/><path fill="#f76f63" d="M103.125 161.375 105 163v2l4 1c-2.18 2.627-3.353 3.884-6.77 4.496-7.096-.137-12.475-.468-18.168-5.059C83 164 83 164 83 162c6.628-2.305 13.523-3.53 20.125-.625"/><path fill="#6a50a4" d="M92.219 13.637a179 179 0 0 1 3.758 1.629c3.851 1.398 7.96 1.493 12.023 1.734l-3 1-.375 2.875C104 24 104 24 102 26l-3.062-1.312-1.958-.836c-1.748-.752-3.49-1.52-5.23-2.29-4.078-1.769-8.284-3.17-12.492-4.597C77 16 77 16 76 14c4.529-2.264 11.438-1.735 16.219-.363"/><path fill="#3c1616" d="M135 101c4.434 0 6.802 1.29 9.875 4.313 3.646 4.47 3.857 8.324 3.762 13.953-.772 3.312-2.067 4.58-4.637 6.734-7.667-16.708-7.667-16.708-9-25"/><path fill="#f8b996" d="M106 60c3 1 3 1 4.125 2.625C112.2 68.258 112.301 72.45 110 78h-2l-1 2-5.957-2.93C99 76 99 76 96 74q1.65-2.66 3.313-5.312c.614-.987 1.23-1.973 1.863-2.989 1.487-2.2 2.864-3.932 4.824-5.699"/><path fill="#fee064" d="M95 75c4.776.468 8.045 1.243 12 4l-1 11h-2l-1 3c-2.375.125-2.375.125-5 0-3.63-3.63-3.056-8.488-3.062-13.375Q94.96 77.313 95 75"/><path fill="#4d3692" d="M154 42c10.827.61 10.827.61 15 4 2.28 3.42 2.22 4.682 2.125 8.688l-.055 3.011L171 60h-1l-.586-5.957c-.34-2.343-.34-2.343-2.414-5.043-4.69-.545-8.552.57-13 2l-3.25.688c-3.06 1.147-3.06 1.147-4.687 4.562-1.088 3.838-1.084 5.944-.063 9.75l-3-1c-1.332-7.023-1.332-7.023.125-11.312 2.052-2.942 3.772-3.981 6.875-5.688 1.656-1.951 2.859-3.717 4-6"/><path fill="#ee8550" d="m19 87 2 1v1l5 1v2l1.688-.035C32.898 91.903 37.844 92.25 43 93c-3.216 3.584-5.16 5.49-10 6l-3 1-2.375-1.937C24.71 95.773 23.592 95.589 20 96l-2 4-2-1c-.295-5.023.015-7.895 3-12"/><path fill="#f6ded0" d="M80 146h31v3c-9.948 4.047-19.757 4.214-30 1z"/><path fill="#f7a152" d="M86 112h1v8l3-1q2.012.975 4 2c2.585.45 2.585.45 5.25.625L104 122l1-10h1l1 18c-7.262-.605-13.952-2.137-21-4z"/><path fill="#f6af8f" d="M20 132h2l1 6h2c2.012 2.334 3.016 4.048 4 7a225 225 0 0 0 5 5q2.255 2.62 4.5 5.25c4.34 4.844 8.908 8.447 14.385 11.933 1.4.897 2.762 1.852 4.115 2.817v2c-14.685-4.155-25.875-17.406-33.371-30.082C20 135.418 20 135.418 20 132"/><path fill="#508ad5" d="M132 55c2.375 1.625 2.375 1.625 4 4 .45 3.144.504 5.055-1 7.875-3.378 1.9-6.166 1.49-10 1.125-2.463-3.695-2.39-5.633-2-10 2.155-3.71 4.992-3.573 9-3"/><path fill="#ea7536" d="M80 81v3c-6.847 1.625-13.564 2.349-20.582 2.785a286 286 0 0 0-9.105.715l-2.325.219c-2.192.249-2.192.249-4.988 1.281-2.187-.937-2.187-.937-4-2 4.32-2.88 7.532-3.166 12.625-3.437 4.122-.262 8.002-.582 12-1.626C69.029 80.559 74.462 80.832 80 81"/><path fill="#eb7e5a" d="M172 88h2c1.43 2.354 2.087 3.48 1.625 6.25L175 96l-1-1-1 2-2.437-1.687c-4.476-1.65-6.398-.818-10.708.828-1.828.717-1.828.717-2.855 1.859-4.295 0-5.839-2.234-9-5l-3-2 2.64.07c7.962.12 15.59-.206 23.36-2.07z"/><path fill="#b28dc6" d="m117.125 12.75 2.277-.064c7.513-.046 13.536 2.02 19.473 6.689l2.242 1.71C144.083 24.102 145 26.81 145 31l7 2v1h-9c-3-6.5-3-6.5-3-11l-1.687-.75C136 21 136 21 133.563 18.938c-4.322-3.268-8.886-3.085-14.176-3.254l-3.78-.127-3.92-.12-3.978-.13Q102.854 15.148 98 15v-1c6.377-.823 12.701-1.16 19.125-1.25"/><path fill="#483200" d="m124 101 2 1c.455 1.93.455 1.93.746 4.445.115.913.23 1.826.35 2.766q.338 2.879.672 5.758c.701 5.536 1.743 10.025 4.232 15.031l-4 2c-3-2-3-2-3.632-4.167l-.352-2.665-.395-2.92-.371-3.06-.418-3.026C121.515 105.97 121.515 105.97 124 101"/><path fill="#9e56dd" d="M46.563 6.563C49 8 49 8 50.437 10.875 51 14 51 14 50.25 16.313 49 18 49 18 47 19c-5.255.447-5.255.447-7.875-1.125C37.471 15.119 37.606 13.149 38 10c2.288-3.16 4.653-4.296 8.563-3.437"/><path fill="#de8fbb" d="m45 51 .836 1.734c1.159 2.256 2.433 4.375 3.789 6.516l1.352 2.14L52 63l4-1 1-4c1.938.688 1.938.688 4 2 1.334 3.89 1.23 7.923 1 12l-2 2c-2.437-.812-2.437-.812-5-2l-1-3h-2a620 620 0 0 1-3.5-6.187l-1.969-3.481C45.068 56.149 44.64 54.427 45 51"/><path fill="#da6237" d="m33 83-3 1 2 1v4l14 2c-2 2-2 2-3.848 2.23C36.71 93.125 31.402 92.686 26 92v-2h-5l-1-4c4.61-2.946 7.624-4.728 13-3"/><path fill="#d1789e" d="M82 29c-.437 2.875-.437 2.875-2 6-3.52 1.437-7.206 2-11 2l1-4c-3.25-2.166-3.599-2.213-7.187-1.625L59 32v-2c7.451-3.974 15.22-4.525 23-1"/><path fill="#cc3145" d="M31 61c3.5.188 3.5.188 7 1 2.302 3.452 2.345 4.947 2 9-2 2-2 2-4.937 2.313C32 73 32 73 30.125 71.937 28.38 68.934 28.692 66.393 29 63z"/><path fill="#2d0e2a" d="M60 101h4a354 354 0 0 1 3.492 17.27c.732 3.935 1.613 7.828 2.508 11.73l-3 1-.375-2.937L66 125l-2-1c-1.752-4.844-2.344-9.505-2.781-14.621-.26-2.822-.706-5.593-1.219-8.379"/><path fill="#55b940" d="M165 26c1 1 1 1 1.063 4.563L166 34h-2v2c-2.905.888-4.49 1.188-7.375.125-2.027-2.65-1.732-3.572-1.375-6.812.23-1.441.474-2.88.75-4.313 3.723-1.127 5.476-.714 9 1"/><path fill="#6c6788" d="M125 24c2.93 1.823 4.628 2.97 5.813 6.25L131 32c-5.081 1.258-8.967.532-13.875-.937l-2.086-.592A486 486 0 0 1 110 29c4.079-4.391 9.065-5.758 15-5"/><path fill="#40190f" d="M132 101c1.84.016 1.84.016 4 1a62 62 0 0 1 2.563 7.75c1.336 4.906 2.704 8.907 5.437 13.25.188 2.813.188 2.813 0 5-1.836-.223-1.836-.223-4-1-4.328-5.918-5.947-12.875-7-20l-.625-3.625z"/><path fill="#f5a8b9" d="m67 68 3 1v2c1.883 1.108 1.883 1.108 4 2l2-1v2h15v3c-6.553 2.932-12.61 1.816-19.375.188C68.737 75.88 67.065 74.382 65 72z"/><path fill="#cc9bbe" d="M166 37c1.828.215 1.828.215 4 1 4.136 5.584 5.881 11.171 5 18-1.239 6.182-4.148 9.59-8.867 13.652-2.39 1.51-4.352 1.965-7.133 2.348 1.631-2.49 2.787-3.885 5.438-5.312 3.436-2.264 5.243-4.854 6.562-8.688.66-5.715-.02-11.36-1-17l-5-2z"/><path fill="#daa3bf" d="m89 6 1.598.84c7.877 3.508 15.367 3.682 23.9 3.744 9.988.156 17.669 2.115 25.502 8.416l-1 2-1.828-1.277-2.422-1.66-2.39-1.653c-4.245-2.537-7.874-2.507-12.77-2.402l-3.748.05q-3.91.067-7.82.157l-3.745.043-3.43.067C98 14 98 14 96.222 12.543L95 11c-1.802-.977-1.802-.977-3.687-1.687L88 8z"/><path fill="#625db7" d="M50 26c-1.622 3.585-3.793 6.59-6.125 9.75l-2.195 2.984L40 41l-1.348-1.48c-1.582-1.75-1.582-1.75-4.09-1.833-2.622.32-4.304.975-6.562 2.313.95-3.67 1.667-4.798 4.969-6.8l3.531-1.513 3.531-1.55C43 29 43 29 45 29v-2c2-1 2-1 5-1"/><path fill="#c56ba3" d="M95 29c6.21-.333 10.283.55 16 3v2l-4 2 4 3-1 3c-5.38-.794-5.38-.794-8-2-1.812-3.562-1.812-3.562-3-7l-3-1z"/><path fill="#f39643" d="M96 115h4c3 0 3 0 5 1v7l-2.875-.562c-3.024-.725-3.024-.725-5.125.562v-2l-1.75.625c-2.794.466-3.837-.257-6.25-1.625h-2v-5c3.061-1.53 5.68-.515 9 0"/><path fill="#7474b5" d="M133 22c2.551.365 3.688.599 5.3 2.672 2.756 5.659 2.756 5.659 2.45 9.328l-.75 2h-3v2l-5-1c0-3.312.187-6.46.5-9.75l.281-2.984z"/><path fill="#9f5591" d="M110 36c8.416-.418 15.113-.268 21.75 5.313 2.359 2.817 4.469 5.467 6.25 8.687-.25 2.375-.25 2.375-1 4-2.352-2-3.38-3.71-4.875-6.5-1.918-3.392-3.389-5.038-7.125-6.5-2.539-.385-5.056-.63-7.617-.816-2.518-.194-4.924-.61-7.383-1.184z"/><path fill="#483773" d="M170 52v8l-2 1v-4a881 881 0 0 0-6-1l-3.625-.625c-3.509-.588-3.509-.588-7.375.625l-2 11 2 1-4-1c-.462-4.71-.69-7.931 1.938-12 3.484-2.276 5.798-2.661 9.878-2.86 2.193-.072 2.193-.072 4.29-.683 2.511-.606 4.418-.076 6.894.543"/><path fill="#c46089" d="M67 31a123 123 0 0 1-9.125 8.5C54.876 42.081 52.831 44.446 51 48h-1c-.58-4.059-.945-7.538 1.348-11.086C55.637 32.446 60.598 28.538 67 31"/><path fill="#c994c8" d="m93.75 9.563 2.422 1.378c.603.35 1.206.7 1.828 1.059v2l-5-1v-2c-12.665-2.236-20.579-.956-31.664 5.25C58 18 58 18 55 18c7.114-6.704 7.114-6.704 12-7V9q4.373-.794 8.75-1.562l2.5-.46 2.422-.42 2.222-.396c4.241-.326 7.247 1.33 10.856 3.4"/><path fill="#4a251a" d="M72 105c5.918 5.766 5.918 5.766 6.25 10.75-.03 4.031-1.163 6.771-3.25 10.25l-2-1c-.427-1.842-.427-1.842-.668-4.219l-.268-2.574-.251-2.707-.288-2.707c-.485-4.887-.485-4.887-.525-6.793z"/><path fill="#463257" d="m160 57.25 2.125.203C164 58 164 58 166 61c-4.271 4.063-6.877 5.76-13 6-1-1-1-1-1.062-4.062L152 60h2v-2c2.353-1.176 3.418-1.035 6-.75"/><path fill="#cc3017" d="M109 156c1.938 2.188 1.938 2.188 3 4-2.837-.373-5.493-.803-8.168-1.84-7.525-2.86-13.284-1.574-20.832.84l-2 1c.98-3.156 2.014-4.008 4.875-5.75 7.499-2.855 16.269-2.335 23.125 1.75"/><path fill="#dca4c2" d="M45 56c7 8.75 7 8.75 7 13h2l5 6h2c2 2 2 2 3 4-4.806-.343-6.792-1.63-10.277-4.855C50.513 72.012 46.76 72.092 43 72l1-4 4 1-.656-2.082-.844-2.73-.844-2.708C45 59 45 59 45 56"/><path fill="#f28c74" d="m83 164 2.5 1.938c6.248 4.13 14.297 3.195 21.5 3.062-1.25 2.5-1.25 2.5-4 5-5.155.817-10.032.976-14.766-1.371-2.626-1.915-3.818-3.723-5.234-6.629z"/><path fill="#da7a90" d="m116 57 1 2h2c2.104 6.31 1.237 13.538 0 20l-1 1 4 2h-10l-1-2h2v-2h3z"/><path fill="#cb6991" d="m118 55 7 1-1 2c0 2.09.004 4.18.031 6.27-.056 4.928-.566 9.826-1.031 14.73l-5-1 .5-2.375c.96-6.955.7-13.721-.5-20.625"/><path fill="#daa3c0" d="M87 5c-2.56 2.56-4.204 2.57-7.75 3.125l-3.11.508c-3.08.36-6.042.432-9.14.367v2c-.797.38-.797.38-1.61.77C61.669 13.583 58.203 15.33 55 18c0-3 0-3 1.18-4.465C65.699 5.267 74.775 4.413 87 5"/><path fill="#7968bb" d="m153 35-1.812.813C146.295 38.468 145.03 41.878 143 47l-1.187 2.938L141 52c-2.9-2.9-3.873-4.966-4.375-9.062C137 40 137 40 138.563 38.25c4.661-2.39 9.197-3.568 14.437-3.25"/><path fill="#714fa0" d="M56 26c.284 3.059.264 4.591-1.426 7.21l-1.886 2.165C49.575 39.136 47.655 42.425 46 47h-1c.392-5.955 1.371-10.628 4-16l-2-1c2.647-3.908 4.132-5.623 9-4"/><path fill="#e78d90" d="m75 39 2 1v2h-2v2a61 61 0 0 1-3.625 2.5C66.369 50.08 63.808 54.618 61 60l-2-1c.607-4.128 2.038-7.332 4-11h2l1-3 3-1 1-2c2.438-1.687 2.438-1.687 5-3"/><path fill="#f7a25e" d="m16 104 3 4 3-4 2 2-1 1 1 3 1.375-1.5C27 107 27 107 29 107c2 3 2 3 1.625 6.188L30 116l-2.375-2c-2.34-2.202-2.34-2.202-4.625-2l-2 5c-3-1-3-1-4.187-3.125-.958-3.39-.95-6.37-.813-9.875"/><path fill="#f17b0e" d="M129 87v2c-6.242 3.581-10.754 5.67-18 5v-6c6.036-.693 11.924-1.113 18-1"/><path fill="#fed556" d="M90 78q.039 2.656.063 5.313l.035 2.988C90 89 90 89 89 92l-3 1c-2.219-4.622-3.383-7.768-3-13 2.647-1.46 3.894-2 7-2m5-3c2.421 2.421 2.528 3.801 3.125 7.125l.508 2.758L99 87l3 1 4-8c1 4 .807 6.055 0 10h-2l-1 3c-2.375.125-2.375.125-5 0-3.63-3.63-3.056-8.488-3.062-13.375Q94.96 77.313 95 75"/><path fill="#d6748e" d="m68 34 2 4a483 483 0 0 1-3.375 3l-1.898 1.688C63 44 63 44 61 44c-2.084 3.847-3.497 7.9-5 12h-3l-2-2v-2h2l.938-1.875L56 46h2l1-4h2l1-2c1.938-2.125 1.938-2.125 4-4h2z"/><path fill="#3b1824" d="M139 103c3.117.23 4.32 1.269 6.75 3.313 3.627 4.513 2.648 10.222 2.25 15.687-5.338-4.806-7.27-12.224-9-19"/><path fill="#60479f" d="m88 14 1.941 1.094C95.258 17.946 98.953 19.657 105 19c-.75 4.75-.75 4.75-3 7-5.774-2.165-10.201-5.149-15-9z"/><path fill="#9b5393" d="M93 26c7.322 1.303 14.63 2.677 21.938 4.063l2.8.528 2.664.507 2.39.453c2.088.425 4.146.915 6.208 1.449l1-2 1 5a85 85 0 0 1-7-2 256 256 0 0 0-6.187-.375c-3.983-.274-7.425-.607-11.126-2.125-3.071-1.25-4.881-1.727-8.062-2L95 29z"/><path fill="#fbc58e" d="M105 66c1.718 1.494 2.881 2.753 3.875 4.813.187 3.269-1.29 5.398-2.875 8.187l-10-4z"/><path fill="#7c72b6" d="m169 60 1 2c-3.064 3.939-5.42 6.786-10 9-3.086.328-3.086.328-6.375.25l-3.441-.078c-3.466-.187-6.774-.538-10.184-1.172l1-6 1.625 1.438c2.91 1.914 4.911 2.229 8.375 2.562l3.875.375c4.866-.047 8.456-2.317 12.125-5.375z"/><path fill="#f7a43e" d="m74 148 .75 1.625a61.5 61.5 0 0 0 7 10.5C83 162 83 162 83 166c-3.943-1.314-6.38-2.747-9-6-1.612-3.788-2.241-6.895-2-11z"/><path fill="#fcb860" d="M69 149h3c1.193 3.877 2 6.916 2 11l4 2v2c-7.373-2.178-7.373-2.178-10-5-.875-3.5-.875-3.5-1-7z"/><path fill="#ec7736" d="m109 96 3 1-2 1-.812 1.875c-1.627 2.91-3.15 3.775-6.188 5.125-3.5.125-3.5.125-7 0l-2.625.563c-2.735.503-4.702.124-7.375-.563v-3l1.697-.06c2.539-.095 5.077-.205 7.615-.315.882-.03 1.763-.062 2.67-.094l2.569-.117 2.364-.095c2.387-.215 2.387-.215 5.085-2.319z"/><path fill="#ae5a8e" d="m123 67 10 2c-1.34 4.382-3.09 6.58-7 9l-4-1z"/><path fill="#e26c43" d="m141 79-4 2 5 1v1l-2.012-.035-2.675-.028-2.637-.035c-2.655.018-2.655.018-5.113.63-3.088.564-5.757.339-8.875.03l-3.239-.308L115 83v-1c8.806-2.188 16.92-3.449 26-3"/><path fill="#f8a55e" d="M86 112h1v12l2.633.148 3.492.227c1.137.07 2.274.14 3.445.21 3.43.415 6.263 1.033 9.43 2.415l1 3c-7.262-.605-13.952-2.137-21-4z"/><path fill="#9d4b78" d="M116 39c2.622 1.049 3.794 1.65 5.25 4.125L122 45h2v2l2 1c1.136 2.995.971 4.979 0 8h-3l-.55-1.828c-1.345-4.274-2.53-7.696-5.45-11.172v-2l-2-1z"/><path fill="#a167ab" d="M136 60h3c2 3 2 3 2 6l-3 1c-1.787 2.059-1.787 2.059-3.5 4.5-3.167 4.389-3.167 4.389-6.5 5.5l1-3 2-1 1-3-6-1v-1l3.375-.375c3.656-.272 3.656-.272 5.625-2.625.648-2.57.648-2.57 1-5"/><path fill="#e16136" d="M51 79c1.896-.054 3.791-.093 5.688-.125l3.199-.07C63.023 79 65.177 79.669 68 81v1c-6.43 1.74-12.35 2.25-19 2l4-2-2-1z"/><path fill="#d65f31" d="m54 82-2.965.367C43.937 83.267 36.957 84.291 30 86c0-2 0-2 1-3.562 5.382-3.869 17.609-4.032 23-.438"/><path fill="#f28420" d="M111 85c9.152-.307 17.348-.494 26 3v1h-8v-2l-3.375.5c-4.88.62-9.714.59-14.625.5z"/><path fill="#ac87be" d="M93 11c-3.271 1.09-3.85.873-7 0-8.935-1.144-14.549 1.23-22 6-4.759 3-4.759 3-7 3 1.603-4.808 6.123-6.118 10.425-8.28C76.16 7.621 83.975 7.705 93 11"/><path fill="#f2912d" d="m117 148 3 2c-.248 4.21-.581 6.476-3.25 9.813-2.575 2.047-4.632 3.207-7.75 4.187 1.695-3.532 3.728-6.733 5.879-10 1.125-2.008 1.675-3.752 2.121-6"/><path fill="#ea9396" d="m111 57 5 2c.695 6.512 1.32 12.551 0 19h-3l.07-2.816c.165-9.283.165-9.283-2.07-18.184"/><path fill="#553d65" d="M168 57c1 2 1 2 .563 4.313-2.302 3.959-5.367 5.933-9.563 7.687-2.822.383-5.137.256-8 0l-1-3 3.188.188c6.475-.319 9.486-3.622 13.812-8.188z"/><path fill="#8375a9" d="M104 16c19.963-.388 19.963-.388 27 2l2 3-1.937-.437c-5.587-1.027-11.067-1.635-16.75-1.5-3.789.06-6.776-.612-10.313-2.063z"/><path fill="#ea7015" d="M133 86c7.626-.458 14.603 1.255 22 3-2.44 2.44-3.145 2.297-6.5 2.313-5.515-.089-10.336-1.467-15.5-3.313z"/><path fill="#b271bc" d="M70 19q3.188-.04 6.375-.062l3.586-.036C83 19 83 19 85 20v2l2.188.75C90.29 24.129 92.5 25.71 95 28l1 3c-2.787-1.18-4.597-2.508-6.937-4.5-4.471-3.65-8.168-4.712-13.876-5.125l-2.957-.227L70 21z"/><path fill="#6226b6" d="M44.5 8.875C47 9 47 9 48 10c.125 3 .125 3 0 6-1 1-1 1-3.437 1.188C42 17 42 17 40 15c.724-5.936.724-5.936 4.5-6.125"/><path fill="#ef9eae" d="M63 60h3c2.18 5.33 2.18 5.33 1.375 8.313C65.7 70.368 64.586 70.655 62 71c-1.187-2.687-1.187-2.687-2-6 1.188-2.875 1.188-2.875 3-5"/><path fill="#96d87d" d="M165 21c2.953 2.311 4.618 3.982 5.938 7.5.073 2.954-.656 4.861-1.938 7.5h-3l1-1c.072-1.853.084-3.708.063-5.562l-.028-3.067L167 24l-1.828-.184-2.422-.253-2.39-.247c-2.184-.292-4.237-.737-6.36-1.316 3.791-2.578 6.673-2.139 11-1"/><path fill="#4fa53c" d="M157 26h6l2 5c-1.125 1.563-1.125 1.563-3 3-3.187-.312-3.187-.312-6-1z"/><path fill="#c77ab8" d="M83.566 21.96c1.853.936 3.651 1.977 5.434 3.04-2.982 1.491-4.903.374-8.062-.5A125 125 0 0 0 75 23l-1 1a86 86 0 0 1-4.562.563l-2.504.253L65 25c.313-1.937.313-1.937 1-4 5.553-1.851 12.114-1.08 17.566.96"/><path fill="#8962b2" d="m80.625 11.938 3.04.027L86 12v1l-6.152.684c-1.86.135-1.86.135-2.848 1.316l2.45 1.137C90.062 21.22 90.062 21.22 94 26c-3.083-1.199-6.063-2.477-9-4v-2l-3.187-.812C78.409 18.128 75.868 17.086 73 15v-2c2.645-1.322 4.678-1.097 7.625-1.062"/><path fill="#bc7bc1" d="M138 66h2c-1.566 3.612-3.768 6.255-6.375 9.188l-2.336 2.667c-3.395 3.181-6.036 3.283-10.539 3.207L117 81l1-2c2.03-.568 4.074-1.079 6.125-1.562 6.335-1.815 9.102-4.11 12.605-9.61z"/><path fill="#da80a0" d="m83 29 8 4-2 4c-2.625.75-2.625.75-5 1l-1-2h-3c.75-4.75.75-4.75 3-7"/><path fill="#6fa0d8" d="M132 55c2.375 1.625 2.375 1.625 4 4 .457 3.202.555 5.076-1.125 7.875-2.655 1.593-4.843 1.327-7.875 1.125l1.875-.875c2.258-1.062 2.258-1.062 4.125-3.125.167-3.083.167-3.083 0-6h-7l-2 7h-1c-.361-6.378-.361-6.378 1.125-8.937 2.81-1.593 4.703-1.516 7.875-1.063"/><path fill="#d182b4" d="M70 26c8.981-.688 16.554.924 23.625 6.75L96 35l-2 2v-2h-3v-2l-2.437-.812a423 423 0 0 1-5.754-1.954C78.547 28.764 74.494 27.576 70 27z"/><path fill="#e6774c" d="M74 94h31v1c-3.166.34-6.333.67-9.5 1-.887.095-1.774.19-2.687.29C82.277 97.373 82.277 97.373 77 97z"/><path fill="#7468bd" d="m47 26 3 1c-5.81 4.239-11.477 7.963-18 11a707 707 0 0 0-4 2c.95-3.67 1.667-4.798 4.969-6.8l3.531-1.513 3.531-1.55C43 29 43 29 45 29v-2z"/><path fill="#5cde45" d="M164 22c3 2 3 2 3.582 3.875l.23 2.125.27 2.125C168 32 168 32 166 34l-1-7c-3.371-1.498-5.204-2-9-2l-1 8h-1c-.483-6.276-.483-6.276 1.625-9.437 3.04-2 4.798-2.02 8.375-1.563"/><path fill="#6c7498" d="M126 22c2.984 1.816 4.617 2.938 5.813 6.25L132 30h-2l-2.062-2.562c-2.585-2.62-2.585-2.62-5.126-2.618-3.275.334-5.992.765-8.949 2.262C112 28 112 28 109.75 27.625L108 27c5.794-3.75 11.018-5.762 18-5"/><path fill="#f35244" d="M109 162v3h-4l-2-3c-6.67-2.223-14.156-1.014-21 0v-2c9.054-1.709 18.77-2.702 27 2"/><path fill="#ad5f9f" d="M128 36c3.735.498 5.812.875 9 3 .512 2.602.512 2.602.688 5.625l.199 3.04L138 50l-1.687-2.187c-2.292-2.788-4.728-5.3-7.313-7.813h4z"/><path fill="#6365a5" d="M105 18c2.5 1.313 2.5 1.313 5 3 0 3.106-.54 4.353-2 7l-4-1c-.81-2.915-1.218-4.461-.062-7.312z"/><path fill="#e36a3f" d="m39.375 89.938 3.773.59L46 91c-2 2-2 2-3.848 2.23C36.71 93.125 31.402 92.686 26 92v-2c4.751-1.045 8.585-.83 13.375-.062"/><path fill="#4b4596" d="m149 48 2 2-1.875 1.563c-2.663 3.055-3.36 5.477-4.125 9.437.277 2.821.277 2.821 1 5l-3-1c-1.092-5.757-1.421-8.927 2-14 2.188-1.875 2.188-1.875 4-3"/><path fill="#c85f6e" d="M110 41c3.962.906 5.647 2.526 7.813 5.813 1.85 3.175 2.772 5.442 2.187 9.187-4.153-3.674-7.234-8.224-10-13z"/><path fill="#d8707b" d="M106 41c4.345 1.348 6.195 3.019 8.75 6.75l1.797 2.547c1.584 2.946 2.086 5.397 2.453 8.703h-2l-1.137-2.195C112.977 51.352 110.111 46.595 106 42z"/><path fill="#a985c7" d="M166 37c1.875.313 1.875.313 4 1 3.976 5.964 4.308 12.27 3.484 19.25L173 59l-2 1 .035-2.379c.049-5.658-.022-11.05-1.035-16.621l-5-2z"/><path fill="#fd9d8b" d="m84 167 2.313 1.438c4.578 2.338 9.64 2.302 14.687 2.562l-1 3c-9.786.576-9.786.576-14-3-1.312-2.187-1.312-2.187-2-4"/><path fill="#e28da7" d="M57 58c1.938.688 1.938.688 4 2 .75 2.625.75 2.625 1 5-2.354 1.43-3.48 2.087-6.25 1.625L54 66c0-3 0-3 2-5z"/><path fill="#593d8d" d="M28 48c2.695 2.515 4.447 4.672 6 8l2 2h-8c-1.491-2.982-1.12-5.716-1-9z"/><path fill="#6f4388" d="M120.375 27.688c3.048.063 4.455.221 7.188 1.687C129 31 129 31 129 33c-5.135-.642-9.994-1.683-15-3 2.405-2.405 3.082-2.296 6.375-2.312"/><path fill="#7581c5" d="M137 24c2.296 2.296 3.064 3.903 4 7-.375 2.813-.375 2.813-1 5l-4 1c-1.007-5.035-.974-8.24 1-13"/><path fill="#7e4f96" d="M86 13c6.44.758 6.44.758 9.313 2 4.108 1.529 8.338 1.68 12.687 2-3.687 2.458-5.553 2.93-10 3-4.436-1.673-8.629-3.629-12-7"/><path fill="#8a79c5" d="m73 13 2 3 3 2-16 1c6-6 6-6 11-6"/><path fill="#df6c42" d="m169 85 4 2c-2 3-2 3-5.484 3.73q-2.13.25-4.266.457l-2.133.249c-4.056.448-8.03.648-12.117.564 3.19-1.854 5.773-2.324 9.438-2.562 3.606-.246 7.03-.662 10.562-1.438z"/><path fill="#e86c30" d="M132 82c6.908.374 13.69.933 20 4l1 2c-1.458.054-2.916.093-4.375.125l-2.46.07C144 88 144 88 142 86c-2.427-.68-2.427-.68-5.125-1.125l-2.758-.508L132 84z"/><path fill="#755ead" d="M158 39c9.385-.313 9.385-.313 12 2 2.337 5.61 2.218 10.991 2 17h-1l-.008-1.687c-.29-5.712-1.658-9.347-5.293-13.782C163.29 40.36 161.192 40 158 40z"/><path fill="#5d3e8e" d="M51 29h2c-1.936 6.205-4.256 12.108-7 18h-1c.295-6.366 1.262-13.262 6-18"/><path fill="#ab69b3" d="m69 21-1.898.55-2.477.762-2.46.739c-2.497.863-2.497.863-4.165 3.949l-2.125-.5c-3.014-.524-5.822-.571-8.875-.5 2.82-2.82 6.113-3.265 9.875-4.187l2.184-.577c3.708-.925 6.295-1.363 9.941-.236"/><path fill="#de94ae" d="M94 31c2.875.688 2.875.688 6 2 1.985 3.338 2.22 6.167 2 10-3.404-1.135-4.217-1.968-6-5l1-3c-1.372-2.19-1.372-2.19-3-4"/><path fill="#f07a10" d="M69 90h11l1 4c-8.571.286-8.571.286-12-2z"/><path fill="#4d4597" d="M29 46c3.458 1.153 3.806 1.805 5.625 4.813.425.687.85 1.374 1.29 2.082 1.053 2.043 1.63 3.86 2.085 6.105-2.437-.812-2.437-.812-5-2l-1-3-2-2a90 90 0 0 1-1-6"/><path fill="#8b77c4" d="m146.75 33.313 2.984.363L152 34c-2.624 1.347-5.249 2.561-8 3.625-.66.26-1.32.52-2 .79-2 .585-2 .585-6 .585 1.904-5.713 5.103-6.427 10.75-5.687"/><path fill="#ad88c9" d="m44 27-2.992 1.828-3.883 2.422-1.973 1.2C30.54 35.301 30.54 35.301 28 40h-2l-1 2c.795-4.291 2.241-7.672 5.8-10.36 9.859-6.31 9.859-6.31 13.2-4.64"/><path fill="#f56556" d="M100 161c1.938.313 1.938.313 4 1l1 3c2.015.733 2.015.733 4 1-3.089 2.06-3.71 2.239-7.187 2.125L98 168v-3l4-2z"/><path fill="#e67a50" d="M172 88h2c1.43 2.354 2.087 3.48 1.625 6.25L175 96l-1.082-1.488c-2.824-2.226-5.07-1.805-8.606-1.7l-3.574.083L159 93v-2l2.59-.402 3.347-.535 3.34-.528c2.627-.253 2.627-.253 3.723-1.535"/><path fill="#d7707e" d="m68 34 2 4a483 483 0 0 1-3.375 3l-1.898 1.688C63 44 63 44 61 44l-1 2h-2l1-4h2l1-2c1.938-2.125 1.938-2.125 4-4h2z"/><path fill="#79e560" d="m153 23 3 1-1 2a71 71 0 0 0-.062 4.438l.027 2.37L155 35v3c-2.861-2.95-3.945-4.472-4.375-8.625C151 26 151 26 153 23"/><path fill="#cb6c95" d="m68.75 27.875 2.984.055L74 28l-1 4-2.047-.254-2.703-.308-2.672-.317c-2.462-.116-4.243.143-6.578.879v-2c3.35-2.026 5.87-2.217 9.75-2.125"/><path fill="#5549a2" d="M48 31c1 2 1 2 .477 3.813L47.625 37c-1.769 4.966-2.308 9.76-2.625 15-2.708-4.062-2.653-7.228-2-12 1.18-3.19 2.561-6.561 5-9"/><path fill="#f76a5e" d="M25 64h1l.75 3.313c.949 3.632.949 3.632 3.063 5.624 4.109 1.996 7.873 1.05 12.187.063-1.437 2.125-1.437 2.125-4 4-4.651-.009-8.08-1.192-11.562-4.25C24.778 69.576 24.67 67.533 25 64"/><path fill="#eca9a1" d="m112 68 2 1-1 11-4 1-1-3h2z"/><path fill="#5b9cd8" d="m132 57 2 1c.361 5.418.361 5.418-1.125 7.813-2.542 1.61-4.915 1.858-7.875 2.187v-2l2.375-1.812c2.774-2.312 3.588-3.793 4.625-7.188"/><path fill="#da97b5" d="M72 24c-2.353 3.529-3.582 3.842-7.5 5.188l-2.969 1.042C59 31 59 31 57 31c1-3 1-3 2.89-4.168C67.723 23.448 67.723 23.448 72 24"/><path fill="#ed801f" d="m74 148 .75 1.625c1.999 3.798 4.21 7.334 7.25 10.375l-1 3c-4.056-2.85-6.279-5.315-8-10 .313-2.875.313-2.875 1-5"/><path fill="#645db6" d="m145 38 1 2a142 142 0 0 1-3 7 605 605 0 0 0-2 5c-2-2-2-2-2.25-4.437C139 45 139 45 141 42h2z"/><path fill="#f9ad57" d="M71 150c1.443 2.501 2.026 4.213 2.375 7.125.305 3.007.305 3.007 2.688 4.25L78 162v2c-1.75-.062-1.75-.062-4-1-2.784-4.022-4.74-6.969-4-12z"/><path fill="#fee065" d="M89 78c.37 5.415.37 5.415-1.5 8.375L86 88l-3-8c3.75-2 3.75-2 6-2"/><path fill="#ef9a8d" d="M25 62c1 2 1 2 .75 4.813-.036 3.37-.036 3.37 2.5 6C30.7 74.763 31.954 75.662 35 76v2c-3.884-.271-5.732-.785-8.812-3.25C23.928 71.909 23.09 70.592 23 67c.938-2.812.938-2.812 2-5"/><path fill="#5343ad" d="m155 37-2.375 2.125c-2.709 2.967-3.642 5.033-4.625 8.875h-2c.604-7.366.604-7.366 2.25-10 2.335-1.334 4.108-1.214 6.75-1"/><path fill="#c86ea0" d="m69 22-1.937.313L65 23l-1 3a134 134 0 0 1-6 3l-2 2c0-4 0-4 1.813-6.187C61.44 21.806 64.45 21.899 69 22"/><path fill="#ed7a31" d="M69 82h11v2q-2.437.503-4.875 1l-2.742.563C70 86 70 86 68 86z"/><path fill="#c28fc3" d="M23 46h1l2 13h2l-1 3h-3c-1.502-3.003-1.093-5.79-1.062-9.125l.027-3.883z"/><path fill="#9c5491" d="M126 69h7c-.687 2.438-.687 2.438-2 5-2.625.813-2.625.813-5 1z"/><path fill="#cb6a92" d="M49 42h1c1.193 3.877 2 6.916 2 11l-2 2c-2.454-3.681-2.233-5.653-2-10z"/><path fill="#da80a1" d="m53 56 4 1c.188 2.375.188 2.375 0 5l-3 2c-1.5-1.312-1.5-1.312-3-3v-3h2z"/><path fill="#cc9cc3" d="M141 22c3.12 2.785 3.538 4.843 4 9l7 2v1c-3.375.188-3.375.188-7 0-1.903-2.855-2.462-4.42-3.125-7.687l-.508-2.45z"/><path fill="#db6538" d="M136 80h15c-2.62 1.746-4.038 2.387-7 3l2 1q-2.221-.423-4.437-.875l-2.497-.492L137 82z"/><path fill="#ef8e46" d="M16 92h4c.688 1.75.688 1.75 1 4-1.437 2.25-1.437 2.25-3 4l-2-1z"/><path fill="#eb7015" d="m47.688 87.938 3.011.027L53 88l-1 2c-2.18.484-2.18.484-4.875.75l-2.68.297C42 91 42 91 39 89c3.15-1.05 5.388-1.101 8.688-1.062"/><path fill="#d484af" d="m119 78-1 2 4 2h-10l-1-2h2v-2c3-1 3-1 6 0"/><path fill="#f9b755" d="m95 75-2 9c-2-1-2-1-3.125-4.062L89 77c3-2 3-2 6-2"/><path fill="#ce81b6" d="M121 35c5.625.45 8.615 1.684 13 5-3.708 1.236-4.675.568-8.187-.937l-2.731-1.153L121 37z"/><path fill="#a35ea1" d="M93 26c6.426.988 12.142 2.136 18 5-3.757 1.252-4.41.436-8-1q-2.09-.26-4.187-.437L95 29z"/><path fill="#ee7a28" d="m54.625 85.813 2.352.019C59 86 59 86 61 87v2c-5.152.09-9.92-.153-15-1 3.01-1.738 5.16-2.251 8.625-2.187"/><path fill="#db602b" d="M144 81h9l1 3-8 1v-2h-2z"/><path fill="#b36997" d="M120 56h5l-1 2a62 62 0 0 0-.062 4.125L124 66h-3z"/><path fill="#e9804d" d="m19 87 2 1v1l5 1v2c-5.625 1.125-5.625 1.125-9 0z"/><path fill="#e86a33" d="M49 84c-1 3-1 3-3.312 4.313C43 89 43 89 40.688 88.125L39 87c3.738-2.492 5.477-3 10-3"/><path fill="#df8394" d="M60 50h2c-1.875 5.75-1.875 5.75-3 8l-4-2v-2h2v-2h3z"/><path fill="#cb668a" d="m105 36 5 2v4l-6-2z"/><path fill="#d5748f" d="m76 32-1 4-6 1 1-5c3-1 3-1 6 0"/><path fill="#f66457" d="M100 160v1l-2.59.367-3.347.508-3.34.492L88 163l-1 2-4-1v-2c5.784-2.012 10.902-2.22 17-2"/><path fill="#f39081" d="m106 47 3 2v2h2a101 101 0 0 1 3 6l-1 2a424 424 0 0 1-2.937-3.75l-1.653-2.11c-1.384-2.1-1.973-3.683-2.41-6.14"/><path fill="#af6fd2" d="M46.563 6.5C49.807 8.497 50.135 10.383 51 14l-2 2v-6l-8-2c3-2 3-2 5.563-1.5"/><path fill="#c25f89" d="m122 66 2 1-1 11-3-1q.212-2.188.438-4.375c.08-.812.162-1.624.246-2.46C121 68 121 68 122 66"/><path fill="#d991af" d="M86 29c4.379.505 6.817 3.178 10 6l-2 2v-2h-3v-2l-1.937-.875C87 31 87 31 86 29"/><path fill="#eb7945" d="M68 81h12v1l-12 1zm-3 2h3l-1 3h-3z"/><path fill="#a573c1" d="m43 68 2.375.563c2.596.697 2.596.697 4.625-.563l1 4h-8z"/><path fill="#f5a69b" d="M111 62h2l1 7-3 1c-.8-3.287-1.097-4.71 0-8"/><path fill="#e3868e" d="m103 39 4 3-1 6-2-1a129 129 0 0 1-2-7z"/><path fill="#ad6cb5" d="M128 36c3.735.498 5.812.875 9 3 .188 2.625.188 2.625 0 5l-3.375-2.875-1.898-1.617A76 76 0 0 1 128 36"/><path fill="#ac5b95" d="M110 36h11v1l-2.875.375c-3.212.342-3.212.342-5.125 2.625l-4-2z"/><path fill="#7d65b8" d="M34.063 33.938 37 34c-2.88 2.4-5.564 4.473-9 6 2.302-5.986 2.302-5.986 6.063-6.062"/><path fill="#ba76bf" d="M57 19c-1 3-1 3-2.96 4.203l-2.415 1.047-2.398 1.078C47 26 47 26 44 25q2.684-1.507 5.375-3l3.023-1.687C55 19 55 19 57 19"/><path fill="#e1703f" d="m21 85 5 2v3h-5c-.562-1.937-.562-1.937-1-4z"/><path fill="#cf9bc2" d="M45 56c2.865 3.41 4.347 6.907 6 11h-3a480 480 0 0 1-1.5-3.812l-.844-2.145C45 59 45 59 45 56"/><path fill="#8f5193" d="M134 51c3 3.875 3 3.875 3 5l-9-1 3-1 1-2z"/><path fill="#63479c" d="M28 42c2 3.75 2 3.75 2 6l-2 1c-.658 3.03-.658 3.03-1 6h-1a268 268 0 0 1-.125-4.25l-.07-2.39c.212-2.567.908-4.152 2.195-6.36"/><path fill="#874e92" d="m120 31 9 2 1-2 1 5c-3.916-.783-7.364-2.392-11-4z"/><path fill="#c590c2" d="M87 9c4.626-.323 7.28.155 11 3v2l-5-1v-2l-6-1z"/><path fill="#694faf" d="M34.313 37.25 36 38l-3.312 1.75C29.703 41.441 27.81 43.018 26 46c.293-3.511.81-4.805 3.313-7.375C32 37 32 37 34.313 37.25"/><path fill="#9e4f81" d="M54 27h2c-.414 4.833-2.464 6.827-6 10 1.11-3.487 2.263-6.775 4-10"/><path fill="#db6d44" d="M51 79h8l1 3-9-1z"/><path fill="#d7a1c1" d="m141 72-2.812 1.813c-2.39 1.64-4.273 3.059-6.188 5.187l-2-1c6.028-7.657 6.028-7.657 11-6"/><path fill="#79a7dc" d="M135 59h1c.36 5.4.36 5.4-1.125 7.875-2.655 1.593-4.843 1.327-7.875 1.125l8-4z"/><path fill="#ef7b17" d="M133 86h8v4l-8-2z"/><path fill="#f0988f" d="m103 46 5 5-1 2h-3z"/><path fill="#e36823" d="M37 86c2.75.813 2.75.813 5 2-3 2-3 2-6.187 1.625L33 89c1.688-1.625 1.688-1.625 4-3"/><path fill="#ea6b52" d="M38 73c2.063.438 2.063.438 4 1-1.687 1.563-1.687 1.563-4 3-2.75-.312-2.75-.312-5-1l1.938-.937c1.998-.898 1.998-.898 3.062-2.063"/><path fill="#c198be" d="M166 37c1.875.188 1.875.188 4 1 1.25 2.563 1.25 2.563 2 5l-7-4z"/><path fill="#6f4186" d="M51 29h2q-.676 2.19-1.375 4.375l-.773 2.46C50 38 50 38 48 40q.462-2.47.938-4.937l.527-2.778C50 30 50 30 51 29"/><path fill="#d187b8" d="M94 31c2.938.75 2.938.75 6 2 .875 2.125.875 2.125 1 4-3.265-1.804-4.89-2.834-7-6"/><path fill="#9264b4" d="M57 24c-3.402 2.094-6.053 2.18-10 2 3.354-3.354 5.648-3.059 10-2"/><path fill="#6f5ab3" d="m78 13 7 4-1 2-8-4z"/><path fill="#846fbf" d="m72 13 1.313 1.375C75.108 16.2 75.108 16.2 78 18l-7-1-1-3z"/></svg>